<?xml version="1.0" encoding="UTF-8"?>
<svg width="27px" height="27px" viewBox="0 0 27 27" version="1.1" xmlns="http://www.w3.org/2000/svg" xmlns:xlink="http://www.w3.org/1999/xlink">
    <!-- Generator: Sketch 61.2 (89653) - https://sketch.com -->
    <title>adjustment</title>
    <desc>Created with Sketch.</desc>
    <g id="Page-1" stroke="none" stroke-width="1" fill="none" fill-rule="evenodd">
        <g id="ICONS" transform="translate(-183.000000, -11.000000)" fill="#FFFFFF" fill-rule="nonzero">
            <g id="Group-Copy-5" transform="translate(183.000000, 11.000000)">
                <path d="M21.4694901,18.506189 L10.152243,18.506189 C9.90855029,17.5698832 9.06975749,16.9165786 8.10955698,16.915216 C6.9472028,16.9142203 6.00344141,17.8620272 6,19.0338165 C6.00344141,20.2056059 6.9472028,21.1534128 8.10955698,21.1524171 C9.06962957,21.153267 9.90918175,20.5004793 10.152243,19.5641406 L21.4721649,19.5641406 C21.7629852,19.5641423 21.9990175,19.326997 22,19.0338165 C21.9970611,18.7408436 21.760116,18.5051859 21.4694901,18.506189 L21.4694901,18.506189 Z M8.10955698,20.0944651 C7.52919119,20.0949624 7.05803701,19.6215906 7.05656172,19.0365131 C7.05656172,18.4499886 7.52820335,17.9745166 8.11000279,17.9745166 C8.69180222,17.9745166 9.16344386,18.4499886 9.16344386,19.0365131 C9.16344386,19.6189707 8.6891056,20.0944651 8.10955698,20.0944651 L8.10955698,20.0944651 Z M21.4801895,12.5476833 L19.8547785,12.5476833 C19.6117173,11.6113446 18.7721651,10.9585569 17.8120925,10.9594068 C16.8520199,10.9585569 16.0124677,11.6113446 15.7694065,12.5476833 L6.59559766,12.5476833 C6.30477739,12.5476817 6.06874511,12.784827 6.06776261,13.0780074 C6.06776261,13.3701351 6.30493174,13.6083315 6.59559766,13.6083315 L15.7702981,13.6083315 C16.0133593,14.5446702 16.8529115,15.1974579 17.8129841,15.196608 C18.7730567,15.1974579 19.6126089,14.5446702 19.8556701,13.6083315 L21.4810811,13.6083315 C21.7597172,13.5917329 21.9771774,13.3589723 21.9769411,13.0775834 C21.9767043,12.7961945 21.7588531,12.5638058 21.4801895,12.5476833 L21.4801895,12.5476833 Z M17.8120925,14.1350617 C17.2313788,14.1360543 16.7596812,13.6625374 16.7582056,13.0771086 C16.7582056,12.4955498 17.2325439,12.0191554 17.8120925,12.0191554 C18.3928062,12.0181628 18.8645038,12.4916797 18.8659794,13.0771086 C18.8645038,13.6625374 18.3928062,14.1360543 17.8120925,14.1350617 L17.8120925,14.1350617 Z M8.10955698,9.23450692 C9.06962957,9.23535685 9.90918175,8.58256914 10.152243,7.64623041 L21.4721649,7.64623041 C21.7629852,7.64623208 21.9990175,7.40908678 22,7.11590632 C21.9990175,6.82272587 21.7629852,6.58558057 21.4721649,6.58558224 L10.152243,6.58558224 C9.90706105,5.65104979 9.06843675,5.00009062 8.10955698,5 C6.94679736,4.99801539 6.00245972,5.94640101 6,7.11860289 C6.00491207,8.28933822 6.94824305,9.23550705 8.10955698,9.23450692 L8.10955698,9.23450692 Z M8.10955698,6.05795316 C8.6902707,6.05696058 9.1619683,6.53047747 9.16344386,7.11590632 C9.16344386,7.70243077 8.69180222,8.17790277 8.11000279,8.17790277 C7.52820335,8.17790277 7.05656172,7.70243077 7.05656172,7.11590632 C7.05703426,6.83484321 7.16824008,6.56548099 7.36571508,6.36707649 C7.56319009,6.16867199 7.83075809,6.05747754 8.10955698,6.05795316 L8.10955698,6.05795316 Z" id="Shape"></path>
            </g>
        </g>
    </g>
</svg>