<?xml version="1.0" encoding="UTF-8"?>
<svg width="27px" height="27px" viewBox="0 0 27 27" version="1.1" xmlns="http://www.w3.org/2000/svg" xmlns:xlink="http://www.w3.org/1999/xlink">
    <!-- Generator: Sketch 51.3 (57544) - http://www.bohemiancoding.com/sketch -->
    <title>aspect</title>
    <desc>Created with Sketch.</desc>
    <defs></defs>
    <g id="Page-1" stroke="none" stroke-width="1" fill="none" fill-rule="evenodd">
        <g id="ICONS" transform="translate(-429.000000, -11.000000)" fill="#FFFFFF" fill-rule="nonzero">
            <g id="expand备份-copy-3" transform="translate(429.000000, 11.000000)">
                <path d="M17.6,11.625 L15.8,11.625 L15.8,13.5 L17.6,13.5 L17.6,11.625 Z M17.6,15.375 L15.8,15.375 L15.8,17.25 L17.6,17.25 L17.6,15.375 Z M10.4,11.625 L8.6,11.625 L8.6,13.5 L10.4,13.5 L10.4,11.625 Z M14,11.625 L12.2,11.625 L12.2,13.5 L14,13.5 L14,11.625 Z M21.2,6 L6.80000001,6 C5.81000002,6 5.00000002,6.84375 5,7.87499999 L5,19.125 C5,20.15625 5.81,21 6.80000001,21 L21.2,21 C22.19,21 23,20.15625 23,19.125 L23,7.87499999 C23,6.84375 22.19,6 21.2,6 Z M21.2,19.125 L6.80000001,19.125 L6.80000001,7.87499999 L21.2,7.87499999 L21.2,19.125 Z" id="Shape"></path>
            </g>
        </g>
    </g>
</svg>