<?xml version="1.0" encoding="UTF-8"?>
<svg width="27px" height="27px" viewBox="0 0 27 27" version="1.1" xmlns="http://www.w3.org/2000/svg" xmlns:xlink="http://www.w3.org/1999/xlink">
    <!-- Generator: Sketch 61.2 (89653) - https://sketch.com -->
    <title>colors</title>
    <desc>Created with Sketch.</desc>
    <g id="Page-1" stroke="none" stroke-width="1" fill="none" fill-rule="evenodd">
        <g id="ICONS" transform="translate(-148.000000, -11.000000)" fill="#FFFFFF" fill-rule="nonzero">
            <g id="Group-Copy-4" transform="translate(148.000000, 11.000000)">
                <path d="M12.9404395,19.5097154 C12.4137324,18.6859612 12.1355529,17.7369597 12.1371245,16.7692287 C12.1371245,16.2749211 12.2080983,15.7967417 12.3410047,15.3434084 C10.7018122,14.9985787 9.3196809,13.9430622 8.59611916,12.4834858 C6.49493279,12.8583576 4.90412495,14.6346393 4.90412495,16.7692287 C4.90412495,19.1766898 6.92800864,21.1282045 9.42474969,21.1282045 C10.7902759,21.1295311 12.0829495,20.5344344 12.9404395,19.5097154 Z M13.4933119,20.228946 C12.4645716,21.3562635 10.9820403,22.0016115 9.42474969,22 C6.42893167,22 4,19.6579205 4,16.7692287 C4,14.2615112 5.82994889,12.1661526 8.27244244,11.6565886 C8.13672061,11.1926342 8.06811218,10.7128264 8.06856226,10.2307683 C8.06856226,7.3420765 10.4974939,5 13.4933119,5 C16.4891299,5 18.9180616,7.34207652 18.9180616,10.2307683 C18.9180616,10.7250759 18.8470878,11.2032553 18.7141814,11.6565886 C21.156675,12.1661526 22.9866239,14.2615112 22.9866239,16.7692287 C22.9866239,19.6579205 20.5576922,22 17.5618742,22 C16.0045836,22.0016115 14.5220523,21.3562635 13.4933119,20.228946 Z M12.9404395,14.028742 C12.1167759,13.044584 10.8897319,12.4547509 9.57890299,12.4128705 C10.2401131,13.514452 11.3671479,14.2827755 12.6646814,14.5165111 C12.7478609,14.3486906 12.8396296,14.1861009 12.9404395,14.0283061 L12.9404395,14.028742 Z M13.4933119,13.3095113 C14.5782019,12.1204908 16.1643954,11.4708895 17.8050838,11.5436911 C17.9407025,11.1295886 18.0139367,10.6884605 18.0139367,10.2307683 C18.0139367,7.82330718 15.990053,5.87179471 13.4933119,5.87179471 C10.9965709,5.87179471 8.9726872,7.82330718 8.9726872,10.2307683 C8.9726872,10.6884605 9.04592132,11.1291528 9.18154006,11.5436911 C10.8221545,11.4707807 12.4083355,12.1202165 13.4933119,13.3090754 L13.4933119,13.3095113 Z M13.4933119,18.6714848 C13.7826319,18.0965361 13.9453744,17.4509722 13.9453744,16.7692287 C13.9453744,16.3115364 13.8721403,15.8708442 13.7365215,15.4563058 C13.5744606,15.4632008 13.4121632,15.4632008 13.2501023,15.4563058 C13.1144836,15.8704083 13.0412448,16.3115364 13.0412448,16.7692287 C13.0402706,17.4281773 13.1948633,18.0786957 13.4933119,18.6714848 Z M14.0461843,19.5097154 C14.9036743,20.5344344 16.196348,21.1295311 17.5618742,21.1282045 C20.0586152,21.1282045 22.0824989,19.1766898 22.0824989,16.7692287 C22.0824989,14.6346393 20.491239,12.8587935 18.3905047,12.4834858 C17.6668345,13.9428949 16.2847206,14.9982372 14.6456192,15.3429725 C14.7785255,15.7963058 14.8494994,16.2749211 14.8494994,16.7692287 C14.8494994,17.7739721 14.5556587,18.712895 14.0461843,19.5097154 L14.0461843,19.5097154 Z M14.0461843,14.028742 C14.1469943,14.185665 14.2387629,14.3486907 14.3219424,14.516947 C15.6195586,14.2831112 16.7466083,13.5146182 17.4077209,12.4128705 C16.096892,12.4547509 14.8698479,13.044584 14.0461843,14.028742 L14.0461843,14.028742 Z" id="Shape"></path>
            </g>
        </g>
    </g>
</svg>