<?xml version="1.0" encoding="UTF-8"?>
<svg width="27px" height="27px" viewBox="0 0 27 27" version="1.1" xmlns="http://www.w3.org/2000/svg" xmlns:xlink="http://www.w3.org/1999/xlink">
    <!-- Generator: Sketch 61.2 (89653) - https://sketch.com -->
    <title>crop</title>
    <desc>Created with Sketch.</desc>
    <g id="Page-1" stroke="none" stroke-width="1" fill="none" fill-rule="evenodd">
        <g id="ICONS" transform="translate(-112.000000, -11.000000)" fill="#FFFFFF" fill-rule="nonzero">
            <g id="Group-Copy-3" transform="translate(112.000000, 11.000000)">
                <path d="M22.500043,20.1107969 L20.75,20.1107969 L20.75,12.5555937 C20.75,12.3104062 20.5258965,12.1112031 20.250043,12.1112031 C19.9741895,12.1112031 19.7501035,12.3104062 19.7501035,12.5555937 L19.7501035,20.1112031 L8.95683594,20.1112031 L21.3538789,9.092 C21.5491719,8.91840625 21.5491719,8.63720312 21.3538789,8.46359375 C21.1581289,8.29 20.8413359,8.29 20.6464824,8.46359375 L8.24989648,19.4828125 L8.24989648,9.88878125 L16.49975,9.88878125 C16.776043,9.88878125 16.99925,9.68957813 16.99925,9.44439063 C16.999707,9.1991875 16.7765,8.99998438 16.500207,8.99998438 L8.24991406,8.99998438 L8.24991406,7.44440625 C8.24989648,7.19920313 8.02625,7 7.74993945,7 C7.47410352,7 7.25,7.19920313 7.25,7.44440625 L7.25,9 L5.49995703,9 C5.22410352,9 5,9.19920313 5,9.44440625 C5,9.68959375 5.22410352,9.88879688 5.49995703,9.88879688 L7.25,9.88879688 L7.25,20.5555937 C7.25,20.8007969 7.47410352,21 7.74995703,21 L19.7496641,21 L19.7496641,22.5555937 C19.7496641,22.8007969 19.97375,23 20.2495859,23 C20.5254219,23 20.75,22.8007969 20.75,22.5555937 L20.75,21 L22.500043,21 C22.7758965,21 23,20.8007969 23,20.5555937 C23,20.3103906 22.7758965,20.1107969 22.500043,20.1107969 Z" id="Shape"></path>
            </g>
        </g>
    </g>
</svg>