<?xml version="1.0" encoding="UTF-8"?>
<svg width="27px" height="27px" viewBox="0 0 27 27" version="1.1" xmlns="http://www.w3.org/2000/svg" xmlns:xlink="http://www.w3.org/1999/xlink">
    <!-- Generator: Sketch 61.2 (89653) - https://sketch.com -->
    <title>down</title>
    <desc>Created with Sketch.</desc>
    <g id="Page-1" stroke="none" stroke-width="1" fill="none" fill-rule="evenodd">
        <g id="ICONS" transform="translate(-7.000000, -11.000000)" fill="#FFFFFF" fill-rule="nonzero">
            <g id="Group" transform="translate(7.000000, 11.000000)">
                <path d="M18.8694732,11.9759004 L14.4257241,17.7673602 C14.3128511,17.9224534 14.1650876,18 13.9824335,18 C13.7997794,18 13.6520158,17.9224534 13.5391428,17.7673602 L9.1212489,11.989482 C9.02561265,11.861552 8.98655192,11.7155132 9.0040667,11.5513656 C9.02158148,11.387218 9.09108456,11.2549069 9.21257595,11.1544322 C9.33406733,11.0539575 9.4730735,11.0129206 9.62959444,11.0313215 C9.78611538,11.0497224 9.91205497,11.1227418 10.0074132,11.2503797 L13.9820165,16.4394296 L17.9828919,11.2232165 C18.0785281,11.0952865 18.2044677,11.0222671 18.3607106,11.0041583 C18.5169536,10.9860495 18.6559597,11.0270864 18.7777291,11.127269 C18.9253537,11.2458525 18.9991777,11.4010917 18.9991777,11.5929867 C19,11.7295329 18.9564911,11.8573169 18.8694732,11.9759004 Z" id="down"></path>
            </g>
        </g>
    </g>
</svg>