<?xml version="1.0" encoding="UTF-8"?>
<svg width="10px" height="7px" viewBox="0 0 10 7" version="1.1" xmlns="http://www.w3.org/2000/svg" xmlns:xlink="http://www.w3.org/1999/xlink">
    <!-- Generator: Sketch 51.3 (57544) - http://www.bohemiancoding.com/sketch -->
    <title>Shape</title>
    <desc>Created with Sketch.</desc>
    <defs></defs>
    <g id="Page-1" stroke="none" stroke-width="1" fill="none" fill-rule="evenodd">
        <g id="Desktop-HD" transform="translate(-79.000000, -26.000000)" fill="#FFFFFF" fill-rule="nonzero">
            <g id="open" transform="translate(33.000000, 11.000000)">
                <path d="M56,15.5925486 C56,15.7295329 55.9564911,15.8573169 55.8694732,15.9759004 L51.4257241,21.7673602 C51.3128511,21.9224534 51.1650876,22 50.9824335,22 C50.7997794,22 50.6520158,21.9224534 50.5391428,21.7673602 L46.1212489,15.989482 C46.0256127,15.861552 45.9865519,15.7155132 46.0040667,15.5513656 C46.0215815,15.387218 46.0910846,15.2549069 46.2125759,15.1544322 C46.3340673,15.0539575 46.4730735,15.0129206 46.6295944,15.0313215 C46.7861154,15.0497224 46.912055,15.1227418 47.0074132,15.2503797 L50.9820165,20.4394296 L54.9828919,15.2232165 C55.0785281,15.0952865 55.2044677,15.0222671 55.3607106,15.0041583 C55.5169536,14.9860495 55.6559597,15.0270864 55.7777291,15.127269 C55.9253537,15.2458525 55.999166,15.4010917 55.999166,15.5929867 L56,15.5925486 Z" id="Shape"></path>
            </g>
        </g>
    </g>
</svg>