<?xml version="1.0" encoding="UTF-8"?>
<svg width="27px" height="27px" viewBox="0 0 27 27" version="1.1" xmlns="http://www.w3.org/2000/svg" xmlns:xlink="http://www.w3.org/1999/xlink">
    <!-- Generator: Sketch 61.2 (89653) - https://sketch.com -->
    <title>export</title>
    <desc>Created with Sketch.</desc>
    <g id="Page-1" stroke="none" stroke-width="1" fill="none" fill-rule="evenodd">
        <g id="ICONS" transform="translate(-218.000000, -11.000000)" fill="#FFFFFF" fill-rule="nonzero">
            <g id="Group-Copy-6" transform="translate(218.000000, 11.000000)">
                <g id="share" transform="translate(5.000000, 5.000000)">
                    <path d="M16.394368,8 C16.0915617,8 15.8320106,8.22314809 15.8320106,8.48348474 L15.8320106,16.0330472 L1.1246758,16.0330472 L1.1246758,8.48346804 C1.1246758,8.22314809 0.865144201,8 0.562337901,8 C0.259531601,8 0,8.22314809 0,8.48348474 L0,16.5165153 C0,16.7768519 0.259551033,17 0.562357333,17 L16.4376427,17 C16.740449,17 17,16.7768519 17,16.5165153 L17,8.48346804 C16.9567253,8.22314809 16.6971937,8 16.3943874,8 L16.394368,8 Z" id="Shape"></path>
                    <path d="M5.05584463,4.16324098 C5.18662976,4.16324098 5.36102952,4.12242615 5.44821961,3.99998166 L7.93323505,1.75507435 L7.93323505,10.4693705 C7.93323505,10.7550927 8.19480531,11 8.5,11 C8.8051751,11 9.06674537,10.7550927 9.06674537,10.4693705 L9.06674537,1.75507435 L11.5517608,3.99998166 C11.6825459,4.08161132 11.8133507,4.16324098 11.9441358,4.16324098 C12.0749209,4.16324098 12.2493207,4.12242615 12.3365108,3.99998166 C12.4411439,3.90283742 12.5,3.77059081 12.5,3.63262986 C12.5,3.49466891 12.4411439,3.3624223 12.3365108,3.26527806 L8.8923456,0.122444489 C8.80515552,0.0408148298 8.67437038,0 8.54356567,0 L8.49997062,0 L8.45639516,0 C8.32561003,0 8.19480531,0.0408148298 8.10761523,0.122444489 L4.66348923,3.22446323 C4.55885611,3.32160747 4.5,3.45385408 4.5,3.59181503 C4.5,3.72977598 4.55885611,3.86202259 4.66348923,3.95916683 C4.75067932,4.12242615 4.9250595,4.16324098 5.05584463,4.16324098 Z" id="Shape"></path>
                </g>
            </g>
        </g>
    </g>
</svg>