<?xml version="1.0" encoding="UTF-8"?>
<svg width="27px" height="27px" viewBox="0 0 27 27" version="1.1" xmlns="http://www.w3.org/2000/svg" xmlns:xlink="http://www.w3.org/1999/xlink">
    <!-- Generator: Sketch 51.3 (57544) - http://www.bohemiancoding.com/sketch -->
    <title>flip</title>
    <desc>Created with Sketch.</desc>
    <defs></defs>
    <g id="Page-1" stroke="none" stroke-width="1" fill="none" fill-rule="evenodd">
        <g id="ICONS" transform="translate(-394.000000, -11.000000)" fill="#FFFFFF" fill-rule="nonzero">
            <g id="expand备份-copy-2" transform="translate(394.000000, 11.000000)">
                <path d="M5,20 L7,20 L7,22 C6.4728836,22 6.00793652,21.7986111 5.60515874,21.3958333 C5.20238096,20.9930556 5.00099207,20.5281085 5.00099207,20.0009921 L5,20 Z M13,20 L15,20 L15,22 L13,22 L13,20 Z M20,17 L22,17 L22,19 L20,19 L20,17 Z M9,20 L11,20 L11,22 L9,22 L9,20 Z M3,13 L24,13 L24,15 L3,15 L3,13 Z M21.9990079,20.0009921 C21.9990079,20.5281085 21.797619,20.9930556 21.3948413,21.3958333 C20.9920635,21.7986111 20.5271164,22 20,22 L20,20 L22,20 L21.9990079,20.0009921 Z M20.0970502,6 C20.5988371,6 21.0414421,6.16919487 21.4248653,6.5075846 C21.8082884,6.84597433 22,7.23659499 22,7.67944657 L22,11 L20.0961058,11 L20.0961058,7.67944657 L6.90389423,7.67944657 L6.90389423,11 L5,11 L5,7.67944657 C5,7.23659499 5.19171157,6.84597433 5.57513471,6.5075846 C5.95855786,6.16919487 6.4011629,6 6.90294983,6 L20.0951614,6 L20.0970502,6 Z M16,20 L18,20 L18,22 L16,22 L16,20 Z M5,17 L7,17 L7,19 L5,19 L5,17 Z" id="Shape"></path>
            </g>
        </g>
    </g>
</svg>