<?xml version="1.0" encoding="UTF-8"?>
<svg width="27px" height="27px" viewBox="0 0 27 27" version="1.1" xmlns="http://www.w3.org/2000/svg" xmlns:xlink="http://www.w3.org/1999/xlink">
    <!-- Generator: Sketch 51.3 (57544) - http://www.bohemiancoding.com/sketch -->
    <title>reset</title>
    <desc>Created with Sketch.</desc>
    <defs></defs>
    <g id="Page-1" stroke="none" stroke-width="1" fill="none" fill-rule="evenodd">
        <g id="ICONS" transform="translate(-148.000000, -44.000000)" fill="#FFFFFF" fill-rule="nonzero">
            <g id="expand备份-copy-5" transform="translate(148.000000, 44.000000)">
                <path d="M19.5032717,15.3589494 C19.0257429,18.6688426 15.8246813,21.1139708 12.2452388,20.3641046 C9.97090685,19.888383 8.12351796,18.0580645 7.64598918,15.7923398 C6.83054808,11.9220627 9.50754206,8.49928635 13.5220213,8.49928635 L13.5220213,10.4989295 L18.5401204,7.49946476 L13.5220213,4.5 L13.5220213,6.49964317 C8.50392224,6.49964317 4.65941086,10.9827142 5.65898382,16.104784 C6.26803536,19.2231792 8.79529574,21.7368435 11.9255374,22.3435901 C16.6704738,23.2627809 20.8711083,20.0153765 21.490277,15.6250309 C21.5752609,15.0283632 21.0916619,14.5002316 20.4886806,14.5002316 L20.4907041,14.5002316 C19.9909176,14.5002316 19.5740916,14.8671017 19.5032717,15.3589494 Z" id="Shape" transform="translate(13.500000, 13.500000) scale(-1, 1) translate(-13.500000, -13.500000) "></path>
            </g>
        </g>
    </g>
</svg>