<?xml version="1.0" encoding="UTF-8"?>
<svg width="27px" height="27px" viewBox="0 0 27 27" version="1.1" xmlns="http://www.w3.org/2000/svg" xmlns:xlink="http://www.w3.org/1999/xlink">
    <!-- Generator: Sketch 51.3 (57544) - http://www.bohemiancoding.com/sketch -->
    <title>rotate</title>
    <desc>Created with Sketch.</desc>
    <defs></defs>
    <g id="Page-1" stroke="none" stroke-width="1" fill="none" fill-rule="evenodd">
        <g id="ICONS" transform="translate(-359.000000, -11.000000)" fill="#FFFFFF" fill-rule="nonzero">
            <g id="expand备份-copy" transform="translate(359.000000, 11.000000)">
                <g id="rotate_left" transform="translate(4.000000, 3.000000)">
                    <path d="M13.2734628,4.99436113 C13.842233,5.41826101 14.4304207,5.24894236 14.4304207,4.50369904 L14.4304207,3.21269468 L14.4587379,3.21269468 C16.5161812,3.21269468 17.8147249,4.62676674 17.8147249,6.64370971 C17.8147249,7.89731114 17.4263754,8.36907068 17.3980583,8.70811014 C17.3883495,8.97194157 17.4830097,9.13241221 17.7014563,9.23617517 C17.9951456,9.37734108 18.3365696,9.24542535 18.4975728,8.97194157 C18.7916667,8.47243148 19,7.6431321 19,6.63445951 C19,3.93863326 17.1893204,2.1191617 14.4680421,2.1191617 L14.4300162,2.1191617 L14.4300162,0.733644546 C14.4300162,-0.0296969827 13.8515372,-0.199417796 13.2734628,0.234134448 L10.6852751,2.1191617 C10.2491909,2.43970078 10.2491909,2.80729517 10.6852751,3.11858408 L13.2734628,4.99436113 Z M2.43648867,21 L11.8325243,21 C13.453479,21 14.269013,20.2270061 14.269013,18.5772554 L14.269013,9.25467555 C14.269013,7.60532699 13.453479,6.83233309 11.8325243,6.83233309 L2.43648867,6.83233309 C0.815129444,6.83233309 0,7.60532699 0,9.25467555 L0,18.5772554 C0,20.2270061 0.815129444,21 2.43648867,21 Z M2.46480582,19.482165 C1.82038834,19.482165 1.5262945,19.2183335 1.5262945,18.5491026 L1.5262945,9.28282829 C1.5262945,8.61399955 1.82038834,8.34976595 2.46480582,8.34976595 L11.8038026,8.34976595 C12.4579288,8.34976595 12.7423139,8.61399955 12.7423139,9.28282829 L12.7423139,18.5491026 C12.7423139,19.2183335 12.4579288,19.482165 11.8038026,19.482165 L2.46480582,19.482165 Z" id="Shape"></path>
                </g>
            </g>
        </g>
    </g>
</svg>