<?xml version="1.0" encoding="UTF-8"?>
<svg width="27px" height="27px" viewBox="0 0 27 27" version="1.1" xmlns="http://www.w3.org/2000/svg" xmlns:xlink="http://www.w3.org/1999/xlink">
    <!-- Generator: Sketch 61.2 (89653) - https://sketch.com -->
    <title>unexpand</title>
    <desc>Created with Sketch.</desc>
    <g id="Page-1" stroke="none" stroke-width="1" fill="none" fill-rule="evenodd">
        <g id="ICONS" transform="translate(-324.000000, -11.000000)" fill="#FFFFFF" fill-rule="nonzero">
            <g id="expand备份" transform="translate(324.000000, 11.000000)">
                <g id="编组-2" transform="translate(5.000000, 5.000000)">
                    <g id="编组" transform="translate(3.000000, 14.000000) scale(-1, -1) translate(-3.000000, -14.000000) translate(0.000000, 11.000000)">
                        <path d="M0.5,6 C0.200000002,6 0,5.66666666 0,5.16666666 L0,1.83333334 C0,1.33333334 0.200000002,1 0.5,1 C0.799999998,1 1,1.33333334 1,1.83333334 L1,5.16666666 C1,5.66666666 0.799999998,6 0.5,6 Z" id="路径"></path>
                        <path d="M4.16666664,6 L0.833333337,6 C0.333333339,6 0,5.8 0,5.5 C0,5.2 0.333333339,5 0.833333337,5 L4.16666666,5 C4.66666666,5 5,5.2 5,5.5 C5,5.8 4.66666664,6 4.16666664,6 Z" id="路径"></path>
                        <path d="M0.705882364,6 C0.494117657,6 0.352941192,5.92941176 0.21176471,5.78823529 C-0.0705882368,5.50588235 -0.0705882368,5.08235293 0.21176471,4.8 L4.80000001,0.21176471 C5.08235295,-0.0705882368 5.50588237,-0.0705882368 5.7882353,0.21176471 C6.07058823,0.494117657 6.07058824,0.91764707 5.7882353,1.2 L1.2,5.78823529 C1.05882354,5.92941176 0.91764707,6 0.705882364,6 Z" id="路径"></path>
                    </g>
                    <g id="编组备份-2" transform="translate(3.000000, 3.000000) scale(-1, 1) translate(-3.000000, -3.000000) ">
                        <path d="M0.5,6 C0.200000002,6 0,5.66666666 0,5.16666666 L0,1.83333334 C0,1.33333334 0.200000002,1 0.5,1 C0.799999998,1 1,1.33333334 1,1.83333334 L1,5.16666666 C1,5.66666666 0.799999998,6 0.5,6 Z" id="路径"></path>
                        <path d="M4.16666664,6 L0.833333337,6 C0.333333339,6 0,5.8 0,5.5 C0,5.2 0.333333339,5 0.833333337,5 L4.16666666,5 C4.66666666,5 5,5.2 5,5.5 C5,5.8 4.66666664,6 4.16666664,6 Z" id="路径"></path>
                        <path d="M0.705882364,6 C0.494117657,6 0.352941192,5.92941176 0.21176471,5.78823529 C-0.0705882368,5.50588235 -0.0705882368,5.08235293 0.21176471,4.8 L4.80000001,0.21176471 C5.08235295,-0.0705882368 5.50588237,-0.0705882368 5.7882353,0.21176471 C6.07058823,0.494117657 6.07058824,0.91764707 5.7882353,1.2 L1.2,5.78823529 C1.05882354,5.92941176 0.91764707,6 0.705882364,6 Z" id="路径"></path>
                    </g>
                    <g id="编组备份" transform="translate(14.000000, 14.000000) scale(1, -1) translate(-14.000000, -14.000000) translate(11.000000, 11.000000)">
                        <path d="M0.5,6 C0.200000002,6 0,5.66666666 0,5.16666666 L0,1.83333334 C0,1.33333334 0.200000002,1 0.5,1 C0.799999998,1 1,1.33333334 1,1.83333334 L1,5.16666666 C1,5.66666666 0.799999998,6 0.5,6 Z" id="路径"></path>
                        <path d="M4.16666664,6 L0.833333337,6 C0.333333339,6 0,5.8 0,5.5 C0,5.2 0.333333339,5 0.833333337,5 L4.16666666,5 C4.66666666,5 5,5.2 5,5.5 C5,5.8 4.66666664,6 4.16666664,6 Z" id="路径"></path>
                        <path d="M0.705882364,6 C0.494117657,6 0.352941192,5.92941176 0.21176471,5.78823529 C-0.0705882368,5.50588235 -0.0705882368,5.08235293 0.21176471,4.8 L4.80000001,0.21176471 C5.08235295,-0.0705882368 5.50588237,-0.0705882368 5.7882353,0.21176471 C6.07058823,0.494117657 6.07058824,0.91764707 5.7882353,1.2 L1.2,5.78823529 C1.05882354,5.92941176 0.91764707,6 0.705882364,6 Z" id="路径"></path>
                    </g>
                    <g id="编组备份-3" transform="translate(11.000000, 0.000000)">
                        <path d="M0.5,6 C0.200000002,6 0,5.66666666 0,5.16666666 L0,1.83333334 C0,1.33333334 0.200000002,1 0.5,1 C0.799999998,1 1,1.33333334 1,1.83333334 L1,5.16666666 C1,5.66666666 0.799999998,6 0.5,6 Z" id="路径"></path>
                        <path d="M4.16666664,6 L0.833333337,6 C0.333333339,6 0,5.8 0,5.5 C0,5.2 0.333333339,5 0.833333337,5 L4.16666666,5 C4.66666666,5 5,5.2 5,5.5 C5,5.8 4.66666664,6 4.16666664,6 Z" id="路径"></path>
                        <path d="M0.705882364,6 C0.494117657,6 0.352941192,5.92941176 0.21176471,5.78823529 C-0.0705882368,5.50588235 -0.0705882368,5.08235293 0.21176471,4.8 L4.80000001,0.21176471 C5.08235295,-0.0705882368 5.50588237,-0.0705882368 5.7882353,0.21176471 C6.07058823,0.494117657 6.07058824,0.91764707 5.7882353,1.2 L1.2,5.78823529 C1.05882354,5.92941176 0.91764707,6 0.705882364,6 Z" id="路径"></path>
                    </g>
                </g>
            </g>
        </g>
    </g>
</svg>